<?xml version="1.0" encoding="UTF-8"?>
<svg id="Layer_1" data-name="Layer 1" xmlns="http://www.w3.org/2000/svg" viewBox="0 0 960 960">
  <defs>
    <style>
      .cls-1, .cls-2 {
        fill-rule: evenodd;
        stroke-width: 0px;
      }

      .cls-2 {
        fill: #03ef62;
      }
    </style>
  </defs>
  <path class="cls-1" d="M248.67,528.2c-16.35,0-29.86-13.51-29.86-29.86s13.51-29.86,29.86-29.86,29.86,13.51,29.86,29.86-13.15,29.86-29.86,29.86M278.52,420.15v46.56c-17.77-16.7-45.14-15.64-61.84,1.78-16.7,17.42-15.64,45.14,1.78,61.84,16.7,15.64,43.01,15.64,59.71,0v9.6h13.86v-119.78h-13.51ZM663.09,528.2c-16.35,0-29.86-13.51-29.86-29.86s13.51-29.86,29.86-29.86,29.86,13.51,29.86,29.86-13.51,29.86-29.86,29.86M706.81,498.34v-43.36h-13.86v11.37c-17.77-16.7-45.14-15.64-61.84,1.78-16.7,17.77-15.64,45.14,1.78,61.84,16.7,15.64,43.01,15.64,59.71,0v9.6h13.86l.36-41.23h0ZM816.99,458.18c1.07-2.13,3.55-3.2,5.69-3.2h2.49c5.69,0,10.31,4.62,10.31,10.31v74.64h-14.22v-63.27c-6.4,10.66-29.86,48.69-36.61,60.07-1.07,2.13-3.55,3.2-5.69,3.2h-2.84c-3.91,0-6.75-3.2-6.75-6.75v-56.87c-12.8,20.97-25.59,41.58-38.39,62.55l-.36.71h-13.51v-84.59h14.22v.36l-.36,58.65,33.77-55.45c1.07-2.13,3.55-3.2,5.69-3.2h2.84c5.69,0,10.31,4.62,10.31,10.31v47.98l33.41-55.45ZM617.95,523.93c-14.22,19.55-41.58,23.81-61.13,9.6s-23.81-41.58-9.6-61.13c14.22-19.55,41.58-23.81,61.13-9.6,4.27,3.2,7.82,6.75,10.66,11.37l-13.15,6.75c-9.24-13.15-27.37-15.99-40.52-6.75-13.15,9.24-15.99,27.37-6.75,40.52,9.24,13.15,27.37,15.99,40.52,6.75,1.78-1.42,3.55-2.84,4.98-4.27l13.86,6.75ZM888.43,528.2c-15.64,0-28.79-12.44-29.86-28.08v-3.55c1.07-16.35,15.28-29.14,31.63-28.08,16.35,1.07,29.14,15.28,28.08,31.63-1.07,15.99-14.22,28.08-29.86,28.08M888.43,454.63c-11.02,0-21.68,4.27-29.86,11.73v-11.37h-13.86v119.42h13.86v-44.07c17.77,16.35,45.14,15.64,61.84-2.13,16.7-17.77,15.64-45.14-2.13-61.84-8.17-7.46-18.84-11.73-29.86-11.73M420.34,468.13v52.25c0,3.2,2.49,5.69,5.69,5.69h15.99v13.86h-15.99c-10.66,0-19.55-8.53-19.55-19.55v-52.25h-14.93v-13.51h14.93v-23.1h13.86v23.1h24.52v13.51h-24.52ZM487.16,528.2c-16.35,0-29.86-13.51-29.86-29.86s13.51-29.86,29.86-29.86h0c16.35,0,29.86,13.51,29.86,29.86,0,16.35-13.15,29.86-29.86,29.86M517.37,454.98v11.37c-17.77-16.7-45.14-15.64-61.84,1.78-16.7,17.77-15.64,45.14,1.78,61.84,16.7,15.64,43.01,15.64,59.71,0v9.6h13.86v-84.59h-13.51ZM341.79,528.2c-16.35,0-29.86-13.51-29.86-29.86s13.51-29.86,29.86-29.86,29.86,13.51,29.86,29.86-13.51,29.86-29.86,29.86h0M371.64,454.98v11.37c-17.77-16.7-45.14-15.64-61.84,1.78-16.7,17.77-15.64,45.14,1.78,61.84,16.7,15.64,43.01,15.64,59.71,0v9.6h13.86v-84.59h-13.51Z"/>
  <path class="cls-2" d="M86.95,430.81v43.72l-46.56,26.3v-96.68l46.56,26.66h0ZM101.87,522.51v-39.45l62.2-35.54-15.28-8.53-46.92,26.66v-39.45c0-2.84-1.42-5.33-3.91-6.4l-56.51-32.34c-5.33-2.84-11.73-1.07-14.57,4.27-1.07,1.42-1.42,3.2-1.42,4.98v111.25c0,6.04,4.98,11.02,10.66,11.02,1.78,0,3.2-.36,4.62-1.07l.71-.36,45.49-25.95v35.19c0,2.84,1.42,5.33,3.91,6.4l58.29,33.05,15.28-8.53-62.55-35.19Z"/>
</svg>